# xmcd
#
# Track frame offsets:
#	150
#	13118
#	33323
#	50505
#	67760
#	88985
#	108837
#	123850
#	142893
#	163248
#	179670
#	197595
#	212630
#	230678
#	245678
#	261663
#	278518
#	293975
#	308580
#
# Disc length: 4361 seconds
#
# Revision: 62
# Processed by: cddbd v1.5.2PL0 Copyright (c) Steve Scherf et al.
# Submitted via: EasyCDDAExtractor 15.3.0.1
#
DISCID=17110713
DTITLE=Shania Twain - Up! - CD 2 (Green Disc)
DYEAR=2002
DGENRE=Country
TTITLE0=Up!
TTITLE1=I'm Gonna Getcha Good!
TTITLE2=She's Not Just A Pretty Face
TTITLE3=Juanita
TTITLE4=Forever And For Always
TTITLE5=Ain't No Particular Way
TTITLE6=It Only Hurts When I'm Breathing
TTITLE7=Nah!
TTITLE8=(Wanna Get To Know You) That Good!
TTITLE9=C'est La Vie
TTITLE10=I'm Jealous
TTITLE11=Ka-Ching!
TTITLE12=Thank You Baby! (For Makin' Someday Come So Soon)
TTITLE13=Waiter! Bring Me Water!
TTITLE14=What A Way To Wanna Be!
TTITLE15=I Ain't Goin' Down
TTITLE16=I'm Not In The Mood (To Say No)!
TTITLE17=In My Car (I'll Be The Driver)
TTITLE18=When You Kiss Me
EXTD=YEAR: 2002
EXTT0=
EXTT1=
EXTT2=
EXTT3=
EXTT4=
EXTT5=
EXTT6=
EXTT7=
EXTT8=
EXTT9=
EXTT10=
EXTT11=
EXTT12=
EXTT13=
EXTT14=
EXTT15=
EXTT16=
EXTT17=
EXTT18=
PLAYORDER=
